<mxfile host="app.diagrams.net" agent="Mozilla/5.0 (Macintosh; Intel Mac OS X 10_15_7) AppleWebKit/537.36 (KHTML, like Gecko) Chrome/130.0.0.0 Safari/537.36" version="25.0.3">
  <diagram id="prtHgNgQTEPvFCAcTncT" name="Page-1">
    <mxGraphModel dx="954" dy="603" grid="1" gridSize="10" guides="1" tooltips="1" connect="1" arrows="1" fold="1" page="1" pageScale="1" pageWidth="827" pageHeight="1169" math="0" shadow="0">
      <root>
        <mxCell id="0" />
        <mxCell id="1" parent="0" />
        <mxCell id="lZ1KmLeNs4u44zZA83yA-4" value="" style="edgeStyle=none;curved=1;rounded=0;orthogonalLoop=1;jettySize=auto;html=1;fontSize=12;startSize=8;endSize=8;entryX=0;entryY=0.5;entryDx=0;entryDy=0;exitX=1;exitY=0.5;exitDx=0;exitDy=0;" edge="1" parent="1" source="lZ1KmLeNs4u44zZA83yA-1" target="lZ1KmLeNs4u44zZA83yA-2">
          <mxGeometry relative="1" as="geometry" />
        </mxCell>
        <mxCell id="lZ1KmLeNs4u44zZA83yA-6" style="edgeStyle=none;curved=1;rounded=0;orthogonalLoop=1;jettySize=auto;html=1;entryX=0;entryY=0.5;entryDx=0;entryDy=0;fontSize=12;startSize=8;endSize=8;exitX=1;exitY=0.5;exitDx=0;exitDy=0;" edge="1" parent="1" source="lZ1KmLeNs4u44zZA83yA-1" target="lZ1KmLeNs4u44zZA83yA-5">
          <mxGeometry relative="1" as="geometry" />
        </mxCell>
        <mxCell id="lZ1KmLeNs4u44zZA83yA-1" value="题库治理" style="rounded=1;whiteSpace=wrap;html=1;" vertex="1" parent="1">
          <mxGeometry x="70" y="290" width="60" height="40" as="geometry" />
        </mxCell>
        <mxCell id="lZ1KmLeNs4u44zZA83yA-9" value="" style="edgeStyle=none;curved=1;rounded=0;orthogonalLoop=1;jettySize=auto;html=1;fontSize=12;startSize=8;endSize=8;" edge="1" parent="1" source="lZ1KmLeNs4u44zZA83yA-2" target="lZ1KmLeNs4u44zZA83yA-8">
          <mxGeometry relative="1" as="geometry" />
        </mxCell>
        <mxCell id="lZ1KmLeNs4u44zZA83yA-2" value="题干治理" style="whiteSpace=wrap;html=1;rounded=1;fillColor=#dae8fc;strokeColor=#6c8ebf;" vertex="1" parent="1">
          <mxGeometry x="188" y="248" width="74" height="42" as="geometry" />
        </mxCell>
        <mxCell id="lZ1KmLeNs4u44zZA83yA-19" value="" style="edgeStyle=none;curved=1;rounded=0;orthogonalLoop=1;jettySize=auto;html=1;fontSize=12;startSize=8;endSize=8;entryX=0;entryY=0.5;entryDx=0;entryDy=0;exitX=1;exitY=0.5;exitDx=0;exitDy=0;" edge="1" parent="1" source="lZ1KmLeNs4u44zZA83yA-5" target="lZ1KmLeNs4u44zZA83yA-20">
          <mxGeometry relative="1" as="geometry" />
        </mxCell>
        <mxCell id="lZ1KmLeNs4u44zZA83yA-5" value="答案治理" style="whiteSpace=wrap;html=1;rounded=1;" vertex="1" parent="1">
          <mxGeometry x="188" y="330" width="70" height="40" as="geometry" />
        </mxCell>
        <mxCell id="lZ1KmLeNs4u44zZA83yA-16" value="" style="edgeStyle=none;curved=1;rounded=0;orthogonalLoop=1;jettySize=auto;html=1;fontSize=12;startSize=8;endSize=8;entryX=0;entryY=0.5;entryDx=0;entryDy=0;" edge="1" parent="1" source="lZ1KmLeNs4u44zZA83yA-8" target="lZ1KmLeNs4u44zZA83yA-17">
          <mxGeometry relative="1" as="geometry" />
        </mxCell>
        <mxCell id="lZ1KmLeNs4u44zZA83yA-8" value="题干是否有误" style="whiteSpace=wrap;html=1;rounded=1;" vertex="1" parent="1">
          <mxGeometry x="318" y="228" width="81" height="31" as="geometry" />
        </mxCell>
        <mxCell id="lZ1KmLeNs4u44zZA83yA-10" value="" style="edgeStyle=none;curved=1;rounded=0;orthogonalLoop=1;jettySize=auto;html=1;fontSize=12;startSize=8;endSize=8;exitX=1;exitY=0.5;exitDx=0;exitDy=0;entryX=0;entryY=0.5;entryDx=0;entryDy=0;" edge="1" parent="1" source="lZ1KmLeNs4u44zZA83yA-2" target="lZ1KmLeNs4u44zZA83yA-11">
          <mxGeometry relative="1" as="geometry">
            <mxPoint x="272" y="276" as="sourcePoint" />
            <mxPoint x="330" y="290" as="targetPoint" />
          </mxGeometry>
        </mxCell>
        <mxCell id="lZ1KmLeNs4u44zZA83yA-15" value="" style="edgeStyle=none;curved=1;rounded=0;orthogonalLoop=1;jettySize=auto;html=1;fontSize=12;startSize=8;endSize=8;" edge="1" parent="1" source="lZ1KmLeNs4u44zZA83yA-11" target="lZ1KmLeNs4u44zZA83yA-14">
          <mxGeometry relative="1" as="geometry" />
        </mxCell>
        <mxCell id="lZ1KmLeNs4u44zZA83yA-11" value="题干是否属于非批改题" style="whiteSpace=wrap;html=1;rounded=1;fillColor=#dae8fc;strokeColor=#6c8ebf;" vertex="1" parent="1">
          <mxGeometry x="318" y="272" width="81" height="31" as="geometry" />
        </mxCell>
        <mxCell id="lZ1KmLeNs4u44zZA83yA-29" style="edgeStyle=none;curved=1;rounded=0;orthogonalLoop=1;jettySize=auto;html=1;exitX=1;exitY=0.5;exitDx=0;exitDy=0;entryX=0;entryY=0.5;entryDx=0;entryDy=0;fontSize=12;startSize=8;endSize=8;" edge="1" parent="1" source="lZ1KmLeNs4u44zZA83yA-14" target="lZ1KmLeNs4u44zZA83yA-28">
          <mxGeometry relative="1" as="geometry" />
        </mxCell>
        <mxCell id="lZ1KmLeNs4u44zZA83yA-14" value="开放题、证明题、画图操作题" style="whiteSpace=wrap;html=1;rounded=1;fillColor=#dae8fc;strokeColor=#6c8ebf;" vertex="1" parent="1">
          <mxGeometry x="441" y="270" width="100" height="40" as="geometry" />
        </mxCell>
        <mxCell id="lZ1KmLeNs4u44zZA83yA-27" value="" style="edgeStyle=none;curved=1;rounded=0;orthogonalLoop=1;jettySize=auto;html=1;fontSize=12;startSize=8;endSize=8;" edge="1" parent="1" source="lZ1KmLeNs4u44zZA83yA-17" target="lZ1KmLeNs4u44zZA83yA-26">
          <mxGeometry relative="1" as="geometry" />
        </mxCell>
        <mxCell id="lZ1KmLeNs4u44zZA83yA-17" value="题干不全、latex错误" style="whiteSpace=wrap;html=1;rounded=1;" vertex="1" parent="1">
          <mxGeometry x="441" y="230" width="119" height="24" as="geometry" />
        </mxCell>
        <mxCell id="lZ1KmLeNs4u44zZA83yA-30" style="edgeStyle=none;curved=1;rounded=0;orthogonalLoop=1;jettySize=auto;html=1;fontSize=12;startSize=8;endSize=8;entryX=0;entryY=0.5;entryDx=0;entryDy=0;" edge="1" parent="1" source="lZ1KmLeNs4u44zZA83yA-18" target="lZ1KmLeNs4u44zZA83yA-31">
          <mxGeometry relative="1" as="geometry">
            <mxPoint x="610" y="350" as="targetPoint" />
          </mxGeometry>
        </mxCell>
        <mxCell id="lZ1KmLeNs4u44zZA83yA-18" value="答案类型是否正确、&lt;div&gt;答案数量是否正确&lt;/div&gt;" style="whiteSpace=wrap;html=1;rounded=1;" vertex="1" parent="1">
          <mxGeometry x="440" y="319" width="120" height="40" as="geometry" />
        </mxCell>
        <mxCell id="lZ1KmLeNs4u44zZA83yA-24" style="edgeStyle=none;curved=1;rounded=0;orthogonalLoop=1;jettySize=auto;html=1;exitX=1;exitY=0.5;exitDx=0;exitDy=0;entryX=0;entryY=0.5;entryDx=0;entryDy=0;fontSize=12;startSize=8;endSize=8;" edge="1" parent="1" source="lZ1KmLeNs4u44zZA83yA-20" target="lZ1KmLeNs4u44zZA83yA-18">
          <mxGeometry relative="1" as="geometry" />
        </mxCell>
        <mxCell id="lZ1KmLeNs4u44zZA83yA-20" value="答案是否非法" style="whiteSpace=wrap;html=1;rounded=1;" vertex="1" parent="1">
          <mxGeometry x="318" y="324" width="81" height="31" as="geometry" />
        </mxCell>
        <mxCell id="lZ1KmLeNs4u44zZA83yA-21" value="答案是否正确" style="whiteSpace=wrap;html=1;rounded=1;" vertex="1" parent="1">
          <mxGeometry x="318" y="367" width="81" height="31" as="geometry" />
        </mxCell>
        <mxCell id="lZ1KmLeNs4u44zZA83yA-22" value="" style="edgeStyle=none;curved=1;rounded=0;orthogonalLoop=1;jettySize=auto;html=1;fontSize=12;startSize=8;endSize=8;entryX=0;entryY=0.5;entryDx=0;entryDy=0;exitX=1;exitY=0.5;exitDx=0;exitDy=0;" edge="1" parent="1" source="lZ1KmLeNs4u44zZA83yA-5" target="lZ1KmLeNs4u44zZA83yA-21">
          <mxGeometry relative="1" as="geometry">
            <mxPoint x="268" y="369" as="sourcePoint" />
            <mxPoint x="328" y="386" as="targetPoint" />
          </mxGeometry>
        </mxCell>
        <mxCell id="lZ1KmLeNs4u44zZA83yA-23" value="答案本身是否正确" style="whiteSpace=wrap;html=1;rounded=1;" vertex="1" parent="1">
          <mxGeometry x="441" y="370" width="100" height="20" as="geometry" />
        </mxCell>
        <mxCell id="lZ1KmLeNs4u44zZA83yA-25" style="edgeStyle=none;curved=1;rounded=0;orthogonalLoop=1;jettySize=auto;html=1;exitX=1;exitY=0.5;exitDx=0;exitDy=0;entryX=-0.006;entryY=0.64;entryDx=0;entryDy=0;entryPerimeter=0;fontSize=12;startSize=8;endSize=8;" edge="1" parent="1" source="lZ1KmLeNs4u44zZA83yA-21" target="lZ1KmLeNs4u44zZA83yA-23">
          <mxGeometry relative="1" as="geometry" />
        </mxCell>
        <mxCell id="lZ1KmLeNs4u44zZA83yA-26" value="3库占比10.32%&lt;div&gt;9库占比5.2%&lt;/div&gt;&lt;div&gt;13库占比1.32%&lt;/div&gt;" style="whiteSpace=wrap;html=1;rounded=1;" vertex="1" parent="1">
          <mxGeometry x="600" y="218" width="140" height="44" as="geometry" />
        </mxCell>
        <mxCell id="lZ1KmLeNs4u44zZA83yA-28" value="3库占比8.72%&lt;div&gt;9库占比2.42%&lt;/div&gt;&lt;div&gt;13库占比0.43%&lt;/div&gt;" style="whiteSpace=wrap;html=1;rounded=1;fillColor=#dae8fc;strokeColor=#6c8ebf;" vertex="1" parent="1">
          <mxGeometry x="601" y="266" width="139" height="51" as="geometry" />
        </mxCell>
        <mxCell id="lZ1KmLeNs4u44zZA83yA-31" value="3库占比10.72%&lt;div&gt;9库占比4.77%&lt;/div&gt;&lt;div&gt;13库占比2.56%&lt;/div&gt;" style="whiteSpace=wrap;html=1;rounded=1;" vertex="1" parent="1">
          <mxGeometry x="600" y="335" width="139" height="51" as="geometry" />
        </mxCell>
        <mxCell id="lZ1KmLeNs4u44zZA83yA-32" style="edgeStyle=none;curved=1;rounded=0;orthogonalLoop=1;jettySize=auto;html=1;fontSize=12;startSize=8;endSize=8;exitX=1;exitY=0.25;exitDx=0;exitDy=0;entryX=0;entryY=0.5;entryDx=0;entryDy=0;" edge="1" parent="1" source="lZ1KmLeNs4u44zZA83yA-23" target="lZ1KmLeNs4u44zZA83yA-31">
          <mxGeometry relative="1" as="geometry">
            <mxPoint x="620" y="360" as="targetPoint" />
            <mxPoint x="570" y="355" as="sourcePoint" />
          </mxGeometry>
        </mxCell>
      </root>
    </mxGraphModel>
  </diagram>
</mxfile>
